<?xml version="1.0" standalone="no"?>
<!DOCTYPE svg PUBLIC "-//W3C//DTD SVG 20010904//EN"
 "http://www.w3.org/TR/2001/REC-SVG-20010904/DTD/svg10.dtd">
<svg version="1.0" xmlns="http://www.w3.org/2000/svg"
 width="1000.000000pt" height="1000.000000pt" viewBox="0 0 1000.000000 1000.000000"
 preserveAspectRatio="xMidYMid meet">
<metadata>
Created by potrace 1.14, written by Peter Selinger 2001-2017
</metadata>
<g transform="translate(0.000000,1000.000000) scale(0.100000,-0.100000)"
fill="#000000" stroke="none">
<path d="M4527 8774 c-2 -1 -218 -14 -257 -16 -8 0 -69 -6 -135 -14 -985 -111
-1698 -524 -2034 -1179 -71 -138 -141 -346 -165 -490 -29 -173 -39 -291 -40
-460 0 -106 11 -377 19 -440 2 -16 7 -59 10 -95 30 -293 142 -933 260 -1475
14 -66 30 -142 36 -170 10 -49 15 -71 23 -110 3 -11 25 -114 50 -230 228
-1061 457 -1707 741 -2096 122 -168 333 -337 590 -475 242 -129 602 -236 910
-270 33 -3 69 -8 79 -10 117 -22 806 -21 949 1 12 2 72 7 132 11 61 4 124 8
140 9 29 2 121 11 220 21 915 91 1504 379 1813 886 306 502 316 1248 23 1851
-70 144 -150 267 -259 397 -159 190 -329 335 -684 582 -269 188 -333 238 -419
329 -194 203 -202 445 -22 635 32 34 105 101 163 149 226 189 319 311 389 512
56 160 65 369 26 594 -9 50 -54 197 -85 275 -78 196 -223 432 -370 599 -63 72
-166 171 -236 227 -67 54 -217 158 -228 158 -3 0 -27 13 -53 28 -231 134 -593
230 -973 258 -70 5 -608 12 -613 8z m498 -1265 c290 -39 618 -245 721 -454 71
-144 54 -307 -44 -416 -73 -81 -143 -114 -362 -169 -315 -79 -456 -148 -598
-291 -298 -299 -417 -727 -302 -1087 98 -305 394 -591 762 -736 157 -62 374
-88 533 -65 33 5 80 11 105 14 25 4 56 9 70 11 60 11 180 3 242 -16 229 -70
433 -331 517 -662 54 -208 40 -420 -35 -558 -223 -408 -1169 -486 -2000 -165
-685 265 -1167 721 -1413 1336 -94 235 -146 454 -178 749 -10 94 -10 482 0
574 7 68 23 184 33 241 23 138 112 452 162 570 51 121 191 377 222 405 3 3 25
32 50 65 64 84 173 198 255 265 259 211 659 375 970 397 44 3 81 6 83 8 5 4
130 -5 207 -16z"/>
</g>
</svg>
