<?xml version="1.0" encoding="UTF-8"?>
<svg id="Layer_1" xmlns="http://www.w3.org/2000/svg" viewBox="0 0 1000 1000">
  <defs>
    <style>
      .cls-1 {
        fill: #fff;
      }

      .cls-1, .cls-2 {
        stroke: #000;
        stroke-miterlimit: 10;
      }
    </style>
  </defs>
  <rect class="cls-1" x="70.43" y="70.5" width="859.14" height="860" rx="95.93" ry="95.93"/>
  <path class="cls-2" d="M790.52,601.59c-46.13-100.1-156.64-111.7-153.37-170.54,2.25-40.47,54.94-42.56,69.94-99.38,15.02-56.9-21.12-118.11-53.99-150.91-59-58.89-139.4-58.11-185.27-57.67-36.12.35-166.74,1.61-238.03,90.79-64.03,80.1-41.62,183.59,3.2,390.58,35.93,165.93,75.01,202.94,88.64,214.73,76.98,66.64,180.36,59.47,240.89,55.27,70.1-4.86,176.32-12.88,223.93-92.09,32.96-54.84,28.32-128.11,4.05-180.78ZM661.69,696.06c-36.3,53.5-206.74,45.73-296.99-51.91-82.39-89.15-60.21-212.37-57.45-226.41,5.19-26.4,19.21-97.7,82.06-140.07,4.04-2.72,75.29-49.32,138.64-22.08,6.65,2.86,48.66,20.92,51.53,52.76.32,3.59.57,12.06-3.68,20.86-13.13,27.15-51.07,20.04-83.43,39.26-33.3,19.77-57.27,65.4-51.53,106.74,6.7,48.21,52.5,81.31,89.57,92.02,44.81,12.95,64.76-10.3,94.47,6.13,38.22,21.14,59.31,89.53,36.81,122.69Z"/>
</svg>